<svg xmlns="http://www.w3.org/2000/svg" viewBox="0 0 1050 200" width="100%" height="100%">
  <defs>
    <mask id="corte-transversal">
      <rect width="1050" height="200" fill="white" />
      <rect x="0" y="90" width="1050" height="20" fill="black" />
    </mask>
  </defs>

  <g mask="url(#corte-transversal)">
      {/* LETRA A - Solid triangle to allow mask cut */}
      <path d="M 50 160 L 450 160 L 250 10 Z" fill="#E31818" />
      
      {/* LETRA D */}
      <path d="M 480 10 L 680 10 C 780 10, 800 60, 800 85 C 800 110, 780 160, 680 160 L 480 160 Z M 560 50 L 560 120 L 680 120 C 730 120, 740 100, 740 85 C 740 70, 730 50, 680 50 Z" fill="#E31818" />
      
      {/* LETRA N */}
      <path d="M 820 160 L 880 160 L 880 70 L 950 160 L 1020 160 L 1020 10 L 960 10 L 960 100 L 880 10 L 820 10 Z" fill="#E31818" />
  </g>
</svg>